<?xml version="1.0" encoding="utf-8"?>
<!-- Generator: Adobe Illustrator 18.0.0, SVG Export Plug-In . SVG Version: 6.00 Build 0)  -->
<!DOCTYPE svg PUBLIC "-//W3C//DTD SVG 1.1//EN" "http://www.w3.org/Graphics/SVG/1.1/DTD/svg11.dtd">
<svg version="1.1" id="Layer_1" xmlns="http://www.w3.org/2000/svg" xmlns:xlink="http://www.w3.org/1999/xlink" x="0px" y="0px"
	 viewBox="0 0 1400 980" style="enable-background:new 0 0 1400 980;" xml:space="preserve">
<style type="text/css">
	.st0{fill:#45255E;}
	.st1{fill:#2C254A;}
	.st2{opacity:0.41;fill:#A7A9AC;}
	.st3{fill:#36254A;}
	.st4{opacity:0.41;fill:#BCBEC0;}
	.st5{fill:#D1D3D4;}
	.st6{fill:#E061AE;}
	.st7{fill:#FF81AE;}
	.st8{fill:#A7A9AC;}
	.st9{fill:#544260;}
	.st10{fill:#68516F;}
	.st11{fill:#4A2C51;}
	.st12{fill:#B48B9A;}
	.st13{fill:#FFB3AE;}
	.st14{fill:#273851;}
	.st15{fill:#F1F2F2;}
	.st16{fill:#FFB82E;}
	.st17{fill:#FFD62E;}
</style>
<rect class="st0" width="1400" height="980"/>
<polygon class="st1" points="0,0 0,404.1 1146.9,0 "/>
<path class="st2" d="M1351,676c-20-3-27-22-43-32c-23-14-61-15-78,7c-24,31-16,74,2,110c7,14,14,38,0,47c-15,9-38,6-58,1
	c-47-11-68-57-100-90c-7-8-14-17-23-18c-40-4-80-4-120,1c-37,4-71,19-101,44c-27,21-50,43-68,72c-35.8,55.5-74.1,105.1-100.3,162
	H1400V662.2c-7.1,3.9-14.4,7.5-22,10.8C1369,676,1360,677,1351,676z"/>
<rect x="180.9" y="696" class="st3" width="177.7" height="76.5"/>
<path class="st4" d="M1171.8,404.1c-83,43.3-46-22.3-207.2-132.1S643.1,409.1,575.7,451c-67.4,41.9-13.9-48.2-157.9-46.9
	c-144,1.3-63,187.7-60,268.2c3,80.4-48,60.4-117,55.3c-69-5.1-39,209.3-105,127.8S0,880.3,0,880.3V980h661.7
	c26.2-56.9,64.5-106.5,100.3-162c18-29,41-51,68-72c30-25,64-40,101-44c40-5,80-5,120-1c9,1,16,10,23,18c32,33,53,79,100,90
	c20,5,43,8,58-1c14-9,7-33,0-47c-18-36-26-79-2-110c17-22,55-21,78-7c16,10,23,29,43,32c9,1,18,0,27-3c7.6-3.3,14.9-6.9,22-10.8
	V221.6C1239.1,226.4,1254.9,360.8,1171.8,404.1z"/>
<g>
	<path class="st5" d="M716,482c26,29,44,63,69,95c3,2,3,7,5,11c18-40,32.9-80.8,48.5-121.4l-34.9-5l-160.5,3L605.2,477
		c14.4,40,37.1,76.8,59.8,113C687,557,701,519,716,482z"/>
	<path class="st6" d="M716,482c-11,27.1-21.5,54.8-34.9,80.6c3.2,7.3,6.3,14.6,10.1,21.2c10.9-21.1,20.6-42.7,30.8-63.8
		c18.5,6.2,27.7,25.6,40.6,40.4c1.3-2.9,2.6-5.9,3.9-8.9C750,527.5,735.2,503.4,716,482z"/>
	<path class="st7" d="M722,520c-10.2,21.1-20,42.7-30.8,63.8c3,5.3,6.5,10.1,10.8,14.2c9,7,33,7,39,0c9.4-10.9,15.6-24,21.6-37.6
		C749.7,545.6,740.5,526.2,722,520z"/>
	<path class="st8" d="M694.9,589.6c-5.6-8-9.6-17.5-13.8-27c-4.9,9.4-10.2,18.6-16.1,27.4c-22.7-36.2-45.4-73-59.8-113l-10,3.3
		c12.3,55,32,109.8,66.8,153.7C672.1,618.5,683.7,604.2,694.9,589.6z"/>
	<path class="st5" d="M694.9,589.6c-11.2,14.6-22.7,28.9-32.9,44.4c-34.8-43.9-54.5-98.8-66.8-153.7l-32,10.5
		c0.9,4.8,2.2,9.5,3.8,14.3c32,96,57,189,73,290c0.6,3.8,1.2,7.6,1.8,11.4c8.4-26,17-52.1,25.2-79.4c5-17,6-35,11-52
		c8.1-25.8,17.4-51,23.9-77.1C699.3,595.4,697,592.6,694.9,589.6z"/>
	<path class="st8" d="M786.2,578.1c-0.3-0.4-0.7-0.8-1.2-1.1c-6.6-8.4-12.7-17-18.5-25.5c-5.1,11.8-10,23.6-16.5,34.1
		c5.5,9.8,11.9,19.1,19,27.4C774.5,601.3,780.4,589.7,786.2,578.1z"/>
	<path class="st5" d="M838.5,466.6C822.9,507.2,808,548,790,588c-1.7-3.4-2-7.5-3.8-9.9c-5.8,11.6-11.7,23.2-17.2,34.9
		c-7.1-8.3-13.5-17.7-19-27.4c-2.7,4.4-5.6,8.6-9,12.4c-1.3,1.5-3.4,2.7-6,3.5c9,59.4,16.4,117,23.9,174.9
		c18-54.9,38.1-108.7,60.1-162.4c19-47.8,39.7-94.4,55.7-142.2L838.5,466.6z"/>
	<path class="st7" d="M737.7,619.8c-14.2,13.3-32,22.2-50.9,28.1c-3,9-6,18-8.8,27.1c-5,17-6,35-11,52
		c-8.1,27.4-16.8,53.5-25.2,79.4c5.9,36.5,12.4,72.4,19.3,107.9c36.1-44.5,67.5-92.7,97.3-141.5
		C751.8,722.1,745.3,671.6,737.7,619.8z"/>
	<path class="st6" d="M661.1,914.3c4.3,22,8.7,43.9,13.2,65.7h25c9.4-31.9,18.6-64.1,27.6-97c9.7-36.2,20.4-71.6,31.9-106.6
		c-0.2-1.2-0.3-2.4-0.5-3.6C728.7,821.6,697.3,869.8,661.1,914.3z"/>
	<path class="st6" d="M735,601.5c-9.6,3.1-25.9,2-33-3.5c0,0-0.1-0.1-0.1-0.1c-4.2,16.9-9.6,33.4-15.1,50
		c18.9-5.9,36.6-14.8,50.9-28.1C736.8,613.7,735.9,607.7,735,601.5z"/>
	<path class="st9" d="M550.5,659.8c2.8-9.1,5.3-18.4,7.5-27.8c-15-5-25-19-41-22c-4-34.1-3.6-68.7-3.1-103.1l-15.8,5.2
		C488,549.1,484.2,587.5,479,625C505.5,628.6,527.8,644.9,550.5,659.8z"/>
	<path class="st10" d="M654.1,877.3c-3,0.9-6.1,1.8-9.1,2.7C648,879.1,651.1,878.2,654.1,877.3c-5-27.1-9.8-54.5-14.1-82.3
		c-0.7-4.5-1.5-8.9-2.2-13.3c-32.6-29.5-63.4-60.9-99.8-85.7c4.6-12,8.8-24,12.5-36.2c-22.7-14.9-45.1-31.3-71.5-34.8
		c5.2-37.5,9-75.9,19.1-112.9l-179.4,58.8l9.3,120.3L200.6,980h61.2c18.6-32,39.4-62.8,66.2-90c38-41,80-73,121-111
		c19-19,46-10,71-5c16,2,30,4,45,7c5,1,9,7,11,12c4,11,4,23,6,35c10.7,52.1,25,101.7,32.3,152h60.1
		C667.3,946,660.5,911.9,654.1,877.3z"/>
	<path class="st9" d="M582,828c-2-12-2-24-6-35c-2-5-6-11-11-12c-15-3-29-5-45-7c-25-5-52-14-71,5c-41,38-83,70-121,111
		c-26.7,27.2-47.5,58-66.2,90h352.4C607,929.7,592.7,880.1,582,828z"/>
	<path class="st11" d="M517,610c16,3,26,17,41,22c-5,22-12,43-20,64c36.5,24.8,67.2,56.1,99.8,85.7c-16-95.9-40.2-184.9-70.8-276.7
		c-1.6-4.8-2.8-9.5-3.8-14.3l-49.4,16.2C513.4,541.3,513,575.9,517,610z"/>
	<path class="st11" d="M851,659c21-11,45-4,67-12c-6.8-57.3-12.2-114.6-20.5-171.9l-22.8-3.3c-16,47.8-36.7,94.4-55.7,142.2
		c-26.3,64.2-49.8,128.4-70.4,194.5c45.8-14.2,91.6-27.7,137.4-43.5C873,730,869,692,851,659z"/>
	<path class="st9" d="M973.9,980h94.8l25.1-150.5C1040.2,867.8,1001.5,920.9,973.9,980z"/>
	<path class="st9" d="M913.2,648.5c-20.6,5.6-42.7,0.3-62.2,10.5c6.4,11.8,11.1,24.3,15,37c19-2.5,38.3-4.3,57-10
		C920.3,673.3,916.8,660.9,913.2,648.5z"/>
	<path class="st9" d="M861.8,773.1c-37.7,12.4-75.5,23.7-113.2,35.4c-4.8,15.4-9.4,30.8-13.8,46.4c49.5-13.4,98.8-27.4,146.2-47.9
		C873.7,796.1,867.5,784.8,861.8,773.1z"/>
	<path class="st10" d="M897.5,475.1c8.3,57.3,13.7,114.6,20.5,171.9c-1.6,0.6-3.2,1.1-4.8,1.5c3.6,12.4,7.1,24.8,9.8,37.5
		c-18.7,5.7-38,7.5-57,10c7,22.8,11.7,46.5,20,69c-8.1,2.8-16.1,5.5-24.2,8.1c5.7,11.6,11.9,23,19.2,33.9
		c-47.4,20.6-96.7,34.5-146.2,47.9c-2.7,9.3-5.3,18.7-7.8,28.1c-9,32.9-18.3,65.1-27.6,97h274.5c27.6-59.1,66.4-112.2,119.9-150.5
		l53.1-318.7L897.5,475.1z"/>
	<path class="st12" d="M795.6,411l-1.1-6.9l-151.4,5v55.5l33.5,33.3C724.1,479.7,767.5,453.1,795.6,411z"/>
	<path class="st13" d="M676.5,497.9l44.9,44.7l82.1-81l-8-50.6C767.5,453.1,724.1,479.7,676.5,497.9z"/>
	<path class="st13" d="M607.7,237.2L622,388l64.8,64.8h68.5l61.1-75.9l11-176.2C758.7,233.3,681.9,238.4,607.7,237.2z"/>
	<path class="st12" d="M605.3,212.1l2.4,25.1c74.2,1.2,151-4,219.7-36.5l0.1-1.6L605.3,212.1z"/>
	<path class="st9" d="M673,178c-2-3.4-3.9-6.8-5.7-10.3l-129.2,4.4v49.5l104.5-2.2C639.4,207.2,636,195,632,183
		C646,181,659,179,673,178z"/>
	<path class="st10" d="M892.1,160.1l-224.8,7.6c1.8,3.5,3.7,6.9,5.7,10.3c-14,1-27,3-41,5c4,12,7.4,24.2,10.6,36.4l249.5-5.3V160.1z
		"/>
	<path class="st9" d="M716.4,74.6L633.1,52c20.5,15.1,41,35.5,67.9,31c10.4-1.8,18.6-8.2,26.5-15.3L716.4,74.6z"/>
	<path class="st9" d="M611.8,135.8c13.3-0.7,26.6-1.4,39.8-2.4c-9.7-24.6-17.2-50.1-24.9-75.4L611.8,135.8z"/>
	<path class="st10" d="M788.6,29.6l-61.1,38.1c-8,7.2-16.1,13.5-26.5,15.3c-26.9,4.5-47.3-15.9-67.9-31l-5-1.4l-1.4,7.4
		c7.7,25.3,15.2,50.8,24.9,75.4c56.7-4.2,112.6-12.9,160.8-39.5L788.6,29.6z"/>
	<path class="st6" d="M611.8,135.8l-6.5,34l61.9-2.2c-5.9-11.1-11-22.6-15.6-34.2C638.4,134.4,625.1,135.1,611.8,135.8z"/>
	<path class="st7" d="M812.5,93.9c-48.3,26.6-104.1,35.3-160.8,39.5c4.6,11.7,9.7,23.1,15.6,34.2l170.3-6L812.5,93.9z"/>
	<path class="st12" d="M835,261c-2.4-4-6.5-5.1-11.1-4.7l-2.8,44.6C833.5,290,842.1,274.5,835,261z"/>
	<path class="st13" d="M824.7,244l-0.8,12.3c4.6-0.5,8.6,0.6,11.1,4.7c7.1,13.5-1.5,29-13.8,40l-0.6,10.3c0,0,31.5-13.2,35.5-49.2
		S824.7,244,824.7,244z"/>
	<path class="st12" d="M592,259c-11.9,17.5,4.6,31.9,22.5,39.5l-2.6-41.6C603.7,255.1,594.6,255.6,592,259z"/>
	<path class="st13" d="M587.7,240.6c7.7,1.7,15.5,3.1,23.4,4l0-0.6C611.1,244,597.1,236.8,587.7,240.6z"/>
	<path class="st13" d="M579.8,262c4,36,35.5,49.2,35.5,49.2l-0.8-12.7c-17.9-7.6-34.4-22-22.5-39.5c2.6-3.4,11.7-3.9,19.9-2.1
		l-0.8-12.3c-7.9-0.9-15.7-2.3-23.4-4C582.2,242.8,578.3,248.7,579.8,262z"/>
	<polygon class="st14" points="597.4,220.3 614.5,306 620.5,243.5 633,232 636.5,219.5 	"/>
	<polygon class="st14" points="794.5,216.2 801.5,235.5 813,243 821,304 837.6,215.3 	"/>
	<path class="st7" d="M718.7,277.4L718.7,277.4c5,0,9.2,3.8,9.8,8.8l5.2,51c0.4,4.2-1.3,8.4-4.6,11.1l0,0c-6,4.8-14.6,4.7-20.4-0.3
		l-0.6-0.5c-3.1-2.7-4.7-6.7-4.3-10.8l5.2-50.5C709.4,281.2,713.6,277.4,718.7,277.4z"/>
	<polygon class="st13" points="470.9,720.8 443.6,788.6 572.6,830.6 572.6,761 538.1,704 	"/>
	<path class="st9" d="M471,889c34.4,16.6,72.3,20.3,109.4,15.2l8.8-79.8l-116.1-33.5C475.2,823.5,473.4,856.6,471,889z"/>
	<path class="st10" d="M471,889c2.4-32.4,4.2-65.5,2.1-98.2l-35.5-10.3L337.6,980H572l8.4-75.8C543.3,909.3,505.4,905.6,471,889z"/>
	<path class="st15" d="M615,846c6-18,1-37,4-55c-10,0-18,6-27,7c0-17,8-27,16-41c6.3-9.4,4.6-23,3.5-36.2H501.2v167.9
		c0,14.9,7.8,28,19.5,35.4C562.7,914,599.4,888.8,615,846z"/>
	<path class="st5" d="M611.5,720.8c1,13.2,2.7,26.8-3.5,36.2c-8,14-16,24-16,41c9-1,17-7,27-7c-3,18,2,37-4,55
		c-15.6,42.8-52.3,68-94.3,78.1c6.5,4.1,14.2,6.5,22.4,6.5h57.1c23.2,0,41.9-18.8,41.9-41.9V720.8H611.5z"/>
	<rect x="491.2" y="720.8" class="st11" width="160.9" height="53.9"/>
	<polygon class="st13" points="470.9,720.8 487,753 521,717 538.1,761 636.5,761 643.1,681 617,647 515.6,647 	"/>
	<path class="st13" d="M645.3,742.1l-39.8,30.2v28.6l50.5-4.6c7.1-0.6,12.8-6,14-13C672.8,767,673.2,740.1,645.3,742.1z"/>
	<path class="st10" d="M1139.9,552.4l-71.3,312.5c17,39.6,11.6,77.5,31.9,115.1H1275L1139.9,552.4z"/>
	<rect x="874.7" y="839.6" class="st11" width="140.4" height="31.5"/>
	<polygon class="st6" points="885,839.6 933,785 982.3,839.6 	"/>
	<polygon class="st7" points="929,839.6 964.1,799.7 1000.2,839.6 	"/>
	<circle class="st14" cx="674.3" cy="281" r="9"/>
	<circle class="st14" cx="761.3" cy="281" r="9"/>
	<path class="st14" d="M745.3,267l32-13.3C777.3,253.7,757.7,235.7,745.3,267z"/>
	<path class="st14" d="M690.3,267l-32-13.3C658.3,253.7,678,235.7,690.3,267z"/>
	<polygon class="st9" points="1015.1,871.1 874.7,871.1 874.7,915 	"/>
	<path class="st16" d="M618.4,840.3c4.1-4,1.9-11.1-3.9-11.9l-21.1-3.1c-2.3-0.3-4.2-1.8-5.3-3.8l-9.4-19.1
		c-1.8-3.6-5.9-4.7-9.1-3.3c0.1,17.7,8.5,37.5,27.3,42.9c-18.1,13-37.3,24.8-56.1,37.1l-0.5,3.2c-1,5.7,5,10,10.1,7.4l18.8-9.9
		c2-1.1,4.5-1.1,6.5,0l18.8,9.9c5.1,2.7,11.1-1.7,10.1-7.4l-3.6-21c-0.4-2.3,0.4-4.6,2-6.2L618.4,840.3z"/>
	<path class="st17" d="M569.7,799.1c-1.4,0.6-2.6,1.7-3.4,3.3l-9.4,19.1c-1,2.1-3,3.5-5.3,3.8l-21.1,3.1c-5.7,0.8-8,7.9-3.9,11.9
		l15.2,14.8c1.6,1.6,2.4,3.9,2,6.2l-3.1,17.8c18.8-12.3,37.9-24.1,56.1-37.1C578.2,836.6,569.8,816.9,569.7,799.1z"/>
</g>
<path class="st4" d="M1000.2,980H1320c0,0,34-89-45-81s-86,31.6-86,31.6s42-85.6-34-86.1S1000.2,980,1000.2,980z"/>
<rect x="1093.7" y="83.6" class="st3" width="177.7" height="76.5"/>
<rect x="982.3" y="181.3" class="st3" width="177.7" height="76.5"/>
<rect x="64.2" y="598" class="st3" width="177.7" height="76.5"/>
<rect x="-24.6" y="696" class="st3" width="177.7" height="76.5"/>
</svg>

