<?xml version="1.0" encoding="utf-8"?>
<!-- Generator: Adobe Illustrator 21.0.0, SVG Export Plug-In . SVG Version: 6.00 Build 0)  -->
<svg version="1.1" id="Layer_1" xmlns="http://www.w3.org/2000/svg" xmlns:xlink="http://www.w3.org/1999/xlink" x="0px" y="0px"
	 width="3000px" height="2000px" viewBox="0 0 3000 2000" style="enable-background:new 0 0 3000 2000;" xml:space="preserve">
<style type="text/css">
	.st0{fill:#DDDBDC;}
	.st1{fill:#F2F2F2;}
	.st2{fill:#C9C9C9;}
	.st3{fill:#FFFFFF;}
	.st4{fill:#BABABA;}
	.st5{fill:#B3B3B3;}
	.st6{fill:#FAC0AC;}
	.st7{fill:#DB746B;}
	.st8{fill:#FCFFFF;}
	.st9{fill:#896E5C;}
	.st10{fill:#FBAA8F;}
	.st11{fill:#EA927C;}
	.st12{fill:#F9CEBB;}
	.st13{fill:#4D4D4D;}
	.st14{fill:#595D60;}
	.st15{fill:#B2A092;}
	.st16{fill:#A69486;}
	.st17{fill:#E1E5EA;}
	.st18{fill:#D9DEDB;}
	.st19{fill:#E0DBDE;}
	.st20{fill:#DEDBE0;}
	.st21{fill:#E8E6E9;}
	.st22{fill:#CCDCE6;}
	.st23{fill:#231F20;}
	.st24{fill:#3A3F40;}
	.st25{fill:#FABFAD;}
	.st26{fill:#FBBDAE;}
	.st27{fill:#A79486;}
	.st28{fill:#4B4B4B;}
	.st29{fill:#CE645F;}
	.st30{fill:#41403E;}
	.st31{fill:#CFCFCF;}
	.st32{fill:#F1EDEB;}
	.st33{fill:#F4F4F2;}
	.st34{fill:#FEFEFB;}
	.st35{fill:#EAE9E8;}
	.st36{fill:#C3A565;}
	.st37{fill:#A78C57;}
	.st38{fill:#E6E7E8;}
	.st39{fill:#A7A9AC;}
	.st40{fill:#C6A76F;}
	.st41{fill:#A08555;}
	.st42{fill:#BA9A61;}
	.st43{fill:#CCCCCC;}
	.st44{fill:#999999;}
	.st45{fill:#8C8C8C;}
	.st46{fill:#A0A0A0;}
	.st47{fill:#D1D1D1;}
	.st48{fill:#E6E6E6;}
	.st49{fill:#9B8450;}
</style>
<g>
	<rect class="st0" width="3000" height="2000"/>
	<g>
		<path class="st1" d="M2124.1,335.3H875.9C559.5,335.3,303,591.8,303,908.2v968.1h2394V908.2C2697,591.8,2440.5,335.3,2124.1,335.3
			z"/>
		<rect x="1014.6" y="355.8" class="st2" width="86.4" height="1520.6"/>
		<rect x="1899" y="355.8" class="st2" width="86.4" height="1520.6"/>
		<polygon class="st3" points="722.3,376.9 899.7,1808.8 1043.9,1808.8 862.4,344.1 		"/>
		<rect x="1899" y="355.8" class="st4" width="43.2" height="1520.6"/>
		<rect x="1014.6" y="355.8" class="st4" width="43.2" height="1520.6"/>
		<polygon class="st3" points="410.4,608.4 559.1,1808.8 806.4,1808.8 634.3,419.7 		"/>
		<polygon class="st3" points="2336.2,406.5 2510,1808.8 2654.1,1808.8 2491.3,494.9 		"/>
		<polygon class="st3" points="1987.9,344.1 2169.4,1808.8 2416.7,1808.8 2240.6,388.3 		"/>
		<path class="st2" d="M2124.1,335.3H875.9C559.5,335.3,303,591.8,303,908.2v968.1h2394V908.2C2697,591.8,2440.5,335.3,2124.1,335.3
			z M2629.5,908.2v900.6h-2259V908.2c0-68.3,13.4-134.4,39.7-196.7c25.4-60.2,61.9-114.2,108.3-160.7C565,504.4,619,468,679.2,442.5
			c62.3-26.3,128.4-39.7,196.7-39.7h1248.3c68.3,0,134.4,13.4,196.7,39.7c60.2,25.4,114.2,61.9,160.7,108.3
			c46.4,46.4,82.9,100.5,108.3,160.7C2616.1,773.8,2629.5,840,2629.5,908.2z"/>
		<path class="st2" d="M1863.8,441.3c-2.6-9.9-12-16.8-22.9-16.8h-699.6c-15.2,0-26.5,13.3-22.9,27.1l3.7,14.3
			c2.6,9.9,12,16.8,22.9,16.8h699.6c15.2,0,26.5-13.3,22.9-27.1L1863.8,441.3z"/>
		<path class="st2" d="M1863.8,526.7c-2.6-9.9-12-16.8-22.9-16.8h-699.6c-15.2,0-26.5,13.3-22.9,27.1l3.7,14.3
			c2.6,9.9,12,16.8,22.9,16.8h699.6c15.2,0,26.5-13.3,22.9-27.1L1863.8,526.7z"/>
		<path class="st2" d="M1863.8,612.2c-2.6-9.9-12-16.8-22.9-16.8h-699.6c-15.2,0-26.5,13.3-22.9,27.1l3.7,14.3
			c2.6,9.9,12,16.8,22.9,16.8h699.6c15.2,0,26.5-13.3,22.9-27.1L1863.8,612.2z"/>
		<path class="st2" d="M1863.8,697.7c-2.6-9.9-12-16.8-22.9-16.8h-699.6c-15.2,0-26.5,13.3-22.9,27.1l3.7,14.3
			c2.6,9.9,12,16.8,22.9,16.8h699.6c15.2,0,26.5-13.3,22.9-27.1L1863.8,697.7z"/>
		<path class="st2" d="M2033.2,424.5c-15.2,0-26.5,13.3-22.9,27.1l3.7,14.3c2.6,9.9,12,16.8,22.9,16.8h387.6l-64.4-58.2H2033.2z"/>
		<path class="st2" d="M2033.2,510c-15.2,0-26.5,13.3-22.9,27.1l3.7,14.3c2.6,9.9,12,16.8,22.9,16.8h477l-44.7-58.2H2033.2z"/>
		<path class="st2" d="M2033.2,595.4c-15.2,0-26.5,13.3-22.9,27.1l3.7,14.3c2.6,9.9,12,16.8,22.9,16.8h554.6l-40.8-58.2H2033.2z"/>
		<path class="st2" d="M2033.2,680.9c-15.2,0-26.5,13.3-22.9,27.1l3.7,14.3c2.6,9.9,12,16.8,22.9,16.8h595.4l-27.6-58.2H2033.2z"/>
		<path class="st2" d="M1863.8,783.2c-2.6-9.9-12-16.8-22.9-16.8h-699.6c-15.2,0-26.5,13.3-22.9,27.1l3.7,14.3
			c2.6,9.9,12,16.8,22.9,16.8h699.6c15.2,0,26.5-13.3,22.9-27.1L1863.8,783.2z"/>
		<path class="st2" d="M965.9,441.3c-2.6-9.9-12-16.8-22.9-16.8H618.7l-59.6,58.2h387.6c15.2,0,26.5-13.3,22.9-27.1L965.9,441.3z"/>
		<path class="st2" d="M965.9,526.7c-2.6-9.9-12-16.8-22.9-16.8H506.5l-40.3,58.2h480.5c15.2,0,26.5-13.3,22.9-27.1L965.9,526.7z"/>
		<path class="st2" d="M965.9,612.2c-2.6-9.9-12-16.8-22.9-16.8H438.1l-33.3,58.2h541.9c15.2,0,26.5-13.3,22.9-27.1L965.9,612.2z"/>
		<path class="st2" d="M965.9,697.7c-2.6-9.9-12-16.8-22.9-16.8H383.7l-14,58.2h577c15.2,0,26.5-13.3,22.9-27.1L965.9,697.7z"/>
		<path class="st2" d="M965.9,783.2c-2.6-9.9-12-16.8-22.9-16.8H348.7l-3.5,58.2h601.5c15.2,0,26.5-13.3,22.9-27.1L965.9,783.2z"/>
		<path class="st2" d="M1863.8,868.7c-2.6-9.9-12-16.8-22.9-16.8h-699.6c-15.2,0-26.5,13.3-22.9,27.1l3.7,14.3
			c2.6,9.9,12,16.8,22.9,16.8h699.6c15.2,0,26.5-13.3,22.9-27.1L1863.8,868.7z"/>
		<path class="st2" d="M1863.8,954.2c-2.6-9.9-12-16.8-22.9-16.8h-699.6c-15.2,0-26.5,13.3-22.9,27.1l3.7,14.3
			c2.6,9.9,12,16.8,22.9,16.8h699.6c15.2,0,26.5-13.3,22.9-27.1L1863.8,954.2z"/>
	</g>
	<g>
		<g>
			<path class="st5" d="M414,1578.4l-64.5-74.3c-0.4-0.4-0.6-0.9-0.6-1.5v-156.5c0-2.2-2.9-3.1-4.1-1.3l-83.1,108.1
				c-0.7,1.1-2.2,1.3-3.2,0.5l-99.1-72.1c-1.5-0.8-3.4,0.4-3.3,2.1l3.4,64.3c0.1,1.3-1,2.4-2.3,2.4h-21c-1.7,0-2.8,1.9-2,3.4
				l66.8,116.9c0.4,0.6,0.4,1.4,0.1,2.1l-23.9,51.3c-0.2,0.5-0.3,1.1-0.1,1.7l35.4,101.4c0.1,0.3,0.3,0.6,0.5,0.8l28.5,30.9
				c0.5,0.6,1.3,0.8,2,0.7l179.9-31.6c1.1-0.2,1.9-1.2,1.9-2.4l-10.9-145.7C414.5,1579.3,414.3,1578.8,414,1578.4z"/>
			<path class="st5" d="M547.6,1724.6H146.1c-10.3,0-18.7,8.4-18.7,18.7V2000h438.9v-256.7C566.3,1733,557.9,1724.6,547.6,1724.6z"
				/>
			<path class="st5" d="M324.6,1220c-5-18.2-16.8-33.3-33.2-42.6c-16.4-9.3-35.4-11.6-53.6-6.6c-37.5,10.4-59.5,49.3-49.1,86.8
				l78.6,283.8c1.8,6.6,7.8,10.9,14.3,10.9c1.3,0,2.6-0.2,4-0.5c7.9-2.2,12.5-10.4,10.3-18.3l-78.6-283.8
				c-6-21.7,6.8-44.3,28.5-50.3c10.5-2.9,21.5-1.6,31,3.8c9.5,5.4,16.3,14.1,19.2,24.6l8.9,32.2c2.2,7.9,10.4,12.5,18.3,10.3
				c7.9-2.2,12.5-10.4,10.3-18.3L324.6,1220z"/>
		</g>
	</g>
	<g>
		<g>
			<circle class="st6" cx="1713.2" cy="800.1" r="55"/>
			<circle class="st7" cx="1713.2" cy="800.1" r="26"/>
			<circle class="st6" cx="1286.8" cy="800.1" r="55"/>
			<circle class="st7" cx="1286.8" cy="800.1" r="26"/>
			<rect x="1337.3" y="1027.1" class="st8" width="321" height="647.7"/>
			<path class="st9" d="M1449.8,1110.4c0,27.7,22.5,50.2,50.2,50.2h0c27.7,0,50.2-22.5,50.2-50.2v-76.1h-100.4V1110.4z"/>
			<path class="st6" d="M1500,564.4L1500,564.4c-117.8,0-213.2,95.5-213.2,213.2v106.6c0,117.8,95.5,213.2,213.2,213.2h0
				c117.8,0,213.2-95.5,213.2-213.2V777.6C1713.2,659.8,1617.8,564.4,1500,564.4z"/>
			<path class="st7" d="M1432.6,917.4c0,37.2,30.2,67.4,67.4,67.4s67.4-30.2,67.4-67.4V901h-134.8V917.4z"/>
			<path class="st10" d="M1544.1,569c-14.2-3-29-4.6-44.1-4.6h0c-117.8,0-213.2,95.5-213.2,213.2v106.6
				c0,117.8,95.5,213.2,213.2,213.2h0c15.1,0,29.9-1.6,44.1-4.6c-96.6-20.3-169.1-106-169.1-208.6V777.6
				C1375,675,1447.5,589.3,1544.1,569z"/>
			<path class="st11" d="M1500,755.2c-16.8,0-30.5,13.7-30.5,30.5v65.6c0,16.8,13.7,30.5,30.5,30.5s30.5-13.7,30.5-30.5v-65.6
				C1530.5,768.8,1516.8,755.2,1500,755.2z"/>
			<path class="st12" d="M1500,564.4L1500,564.4c-15.1,0-29.9,1.6-44.1,4.6c96.6,20.3,169.1,106,169.1,208.6v106.6
				c0,102.6-72.5,188.3-169.1,208.6c14.2,3,29,4.6,44.1,4.6h0c117.8,0,213.2-95.5,213.2-213.2V777.6
				C1713.2,659.8,1617.8,564.4,1500,564.4z"/>
			<path class="st13" d="M1631.5,685h-56.8c-13.6,0-24.5,11-24.5,24.5c0,13.6,11,24.5,24.5,24.5h56.8c13.6,0,24.5-11,24.5-24.5
				C1656.1,696,1645.1,685,1631.5,685z"/>
			<circle class="st14" cx="1603.1" cy="789.1" r="29.2"/>
			<path class="st13" d="M1425.3,685h-56.8c-13.6,0-24.5,11-24.5,24.5c0,13.6,11,24.5,24.5,24.5h56.8c13.6,0,24.5-11,24.5-24.5
				C1449.8,696,1438.8,685,1425.3,685z"/>
			<circle class="st13" cx="1603.1" cy="789.1" r="15"/>
			<circle class="st14" cx="1396.9" cy="789.1" r="29.2"/>
			<circle class="st13" cx="1396.9" cy="789.1" r="15"/>
			<path class="st13" d="M1662.7,747.7c0,27.9,22.6,50.5,50.5,50.5s50.5-22.6,50.5-50.5V583.2h-101V747.7z"/>
			<path class="st13" d="M1236.3,747.7c0,27.9,22.6,50.5,50.5,50.5s50.5-22.6,50.5-50.5V583.2h-101V747.7z"/>
			<ellipse class="st15" cx="1500" cy="629.3" rx="364" ry="80.3"/>
			<g>
				<g>
					<g>
						<path class="st15" d="M1652.6,456.4c-4.5-21.9-23.9-37.7-46.3-37.7H1500h-106.3c-22.4,0-41.7,15.7-46.3,37.7l-4.2,20.1
							L1314,618c54.4,7.2,118,11.3,186,11.3s131.5-4.1,186-11.3l-29.2-141.5L1652.6,456.4z"/>
					</g>
				</g>
			</g>
			<path class="st16" d="M1748.9,1050.8l11.7-94.8c1.7-13.6-9-25.6-22.7-25.6h-87.1c-11.5,0-21.2,8.6-22.7,20l-22.5,177.3v547.2
				h107.6h26h59.9c35.3,0,63.9-28.6,63.9-63.9v-414.7C1863,1125.8,1814.4,1066.8,1748.9,1050.8z"/>
			<g>
				<path class="st17" d="M1620.8,957.2c0,6.3,5.1,11.5,11.5,11.5h31.7c6.3,0,11.5-5.1,11.5-11.5v-14h-54.6V957.2z"/>
				<path class="st18" d="M1648.1,968.7h15.8c6.3,0,11.5-5.1,11.5-11.5v-14h-27.3V968.7z"/>
				<path class="st19" d="M1648.1,697.6c-70.6,0-127.9,57.2-127.9,127.9c0,70.6,57.2,127.9,127.9,127.9
					c70.6,0,127.9-57.2,127.9-127.9C1775.9,754.9,1718.7,697.6,1648.1,697.6z M1648.1,928.3c-56.8,0-102.8-46-102.8-102.8
					c0-56.8,46-102.8,102.8-102.8s102.8,46,102.8,102.8C1750.9,882.3,1704.9,928.3,1648.1,928.3z"/>
				<rect x="1635.4" y="968.7" class="st20" width="25.4" height="54.1"/>
				<path class="st21" d="M1673.8,1022.8h-51.4c-5.1,0-9.3,4.2-9.3,9.3v173.2c0,5.1,4.2,9.3,9.3,9.3h51.4c5.1,0,9.3-4.2,9.3-9.3
					v-173.2C1683.1,1026.9,1678.9,1022.8,1673.8,1022.8z"/>
				<rect x="1648.1" y="968.7" class="st22" width="12.7" height="54.1"/>
				<rect x="1613.1" y="1041.6" class="st23" width="69.9" height="154.1"/>
				<rect x="1626.8" y="1041.6" class="st24" width="21.3" height="154.1"/>
			</g>
			<path class="st16" d="M1349.3,930.3h-87.1c-13.7,0-24.4,12-22.7,25.6l11.7,94.8c-65.5,16-114.1,75-114.1,145.4v411.2
				c0,37.2,30.2,67.4,67.4,67.4h56.3h26h107.6v-547.2l-22.5-177.3C1370.5,938.9,1360.8,930.3,1349.3,930.3z"/>
			<path class="st15" d="M1773.4,1160.6c-43.2,1.8-78.8,36.4-81.8,79.6c-3.5,50.2,36.2,92,85.6,92c7.6,0,14.9-1,22-2.8v345.5h0
				c35.3,0,63.9-28.6,63.9-63.9v-380.5h-1.5C1853.8,1189.5,1817,1158.8,1773.4,1160.6z"/>
			<path class="st9" d="M1515.6,1132.8h-31.2c-19.1,0-34.6,15.5-34.6,34.6v439.9h100.4v-439.9
				C1550.2,1148.3,1534.7,1132.8,1515.6,1132.8z"/>
			<g>
				<circle class="st25" cx="1699.2" cy="1275" r="116.8"/>
				<circle class="st26" cx="1596.6" cy="1225.7" r="38.3"/>
				<path class="st10" d="M1761,1175.9c11.2,17.9,17.7,39.1,17.7,61.8c0,64.5-52.3,116.8-116.8,116.8c-22.7,0-43.9-6.5-61.8-17.7
					c20.6,33,57.3,55,99.1,55c64.5,0,116.8-52.3,116.8-116.8C1816,1233.2,1794.1,1196.5,1761,1175.9z"/>
				
					<ellipse transform="matrix(0.5647 -0.8253 0.8253 0.5647 -312.3411 1906.1045)" class="st12" cx="1650.8" cy="1249.2" rx="61.2" ry="44.9"/>
			</g>
			<path class="st15" d="M1251.1,1423.5v-372.7c-65.5,16-114.1,75-114.1,145.4v295.5v118.8c0,35.5,28.8,64.3,64.3,64.3h497.9v-183
				h-379.9C1281.6,1491.8,1251.1,1461.2,1251.1,1423.5z"/>
			<path class="st16" d="M1201.3,1674.8h497.9v-46.7h-559.8C1147.1,1655.1,1171.9,1674.8,1201.3,1674.8z"/>
			<g>
				<g>
					<g>
						<path class="st27" d="M1419.1,707.6c-3.7-0.2-7.4-0.4-11.1-0.6C1411.6,707.2,1415.3,707.4,1419.1,707.6z"/>
					</g>
					<g>
						<path class="st27" d="M1407.9,707c-0.6,0-1.3-0.1-1.9-0.1C1406.7,706.9,1407.3,706.9,1407.9,707z"/>
					</g>
					<g>
						<path class="st27" d="M1406,706.9c-3.8-0.2-7.7-0.5-11.4-0.7C1398.4,706.4,1402.2,706.6,1406,706.9z"/>
					</g>
					<g>
						<path class="st27" d="M1424.6,707.8c0,0,0.1,0,0.1,0c-1.2-0.1-2.3-0.1-3.5-0.2C1422.4,707.7,1423.5,707.8,1424.6,707.8z"/>
					</g>
					<g>
						<path class="st27" d="M1421.2,707.7c-0.7,0-1.5-0.1-2.2-0.1C1419.8,707.6,1420.5,707.6,1421.2,707.7z"/>
					</g>
					<g>
						<path class="st27" d="M1407.9,551.6c-0.6,0-1.3,0.1-1.9,0.1C1406.7,551.6,1407.3,551.6,1407.9,551.6z"/>
					</g>
					<g>
						<path class="st27" d="M1421.2,550.8c1.2-0.1,2.3-0.1,3.5-0.2c0,0-0.1,0-0.1,0C1423.5,550.7,1422.4,550.8,1421.2,550.8z"/>
					</g>
					<g>
						<path class="st27" d="M1500,549c-25.8,0-51,0.6-75.3,1.7c164.8,7.7,288.5,39.9,288.5,78.6s-123.7,70.9-288.5,78.6
							c24.3,1.1,49.5,1.7,75.3,1.7c201,0,364-36,364-80.3S1701,549,1500,549z"/>
					</g>
					<g>
						<path class="st27" d="M1406,551.7c-3.8,0.2-7.6,0.5-11.4,0.7C1398.4,552.1,1402.2,551.9,1406,551.7z"/>
					</g>
					<g>
						<path class="st27" d="M1419,551c-3.7,0.2-7.4,0.4-11.1,0.6C1411.6,551.3,1415.3,551.1,1419,551z"/>
					</g>
					<g>
						<path class="st27" d="M1421.2,550.8c-0.7,0-1.5,0.1-2.2,0.1C1419.8,550.9,1420.5,550.9,1421.2,550.8z"/>
					</g>
				</g>
			</g>
			<g>
				<circle class="st26" cx="1699.2" cy="1558" r="116.8"/>
				<path class="st10" d="M1761,1458.9c11.2,17.9,17.7,39.1,17.7,61.8c0,64.5-52.3,116.8-116.8,116.8c-22.7,0-43.9-6.5-61.8-17.7
					c20.6,33,57.3,55,99.1,55c64.5,0,116.8-52.3,116.8-116.8C1816,1516.2,1794.1,1479.6,1761,1458.9z"/>
				
					<ellipse transform="matrix(0.5647 -0.8253 0.8253 0.5647 -545.9118 2029.2938)" class="st12" cx="1650.8" cy="1532.2" rx="61.2" ry="44.9"/>
			</g>
			<path class="st28" d="M1500,539c-60.5,0-117.6-3.3-167.8-9l-8.9,43.1c52.3,6.4,112.6,10.1,176.7,10.1s124.4-3.7,176.7-10.1
				l-8.9-43.1C1617.6,535.8,1560.5,539,1500,539z"/>
			<path class="st27" d="M1652.6,456.4c-4.5-21.9-23.9-37.7-46.3-37.7h-51.6c22.4,0,41.7,15.7,46.3,37.7l4.2,20.1l24.1,101.5
				l52.2,18.5l-24.8-120L1652.6,456.4z"/>
			<path class="st29" d="M1500,927.3c-22.8,0-43,11.4-55.2,28.8c12.2,17.4,32.4,28.8,55.2,28.8s43-11.4,55.2-28.8
				C1543,938.7,1522.8,927.3,1500,927.3z"/>
			<path class="st30" d="M1667.8,530c-15.6,1.8-31.9,3.3-48.8,4.6l10.3,43.4l0,0c16.4-1.4,32.2-3,47.4-4.9l-4.4-21.3L1667.8,530z"/>
			<path class="st15" d="M1449.8,1212.5v17.8l100.3-64.6c-0.3-5.5-1.8-10.6-4.3-15.1L1449.8,1212.5z"/>
			<polygon class="st15" points="1449.8,1296.1 1550.2,1231.5 1550.2,1213.6 1449.8,1278.3 			"/>
			<polygon class="st15" points="1449.8,1361.9 1550.2,1297.3 1550.2,1279.4 1449.8,1344.1 			"/>
			<polygon class="st15" points="1449.8,1427.7 1550.2,1363.1 1550.2,1345.2 1449.8,1409.9 			"/>
			<polygon class="st15" points="1449.8,1493.5 1550.2,1428.9 1550.2,1411 1449.8,1475.7 			"/>
		</g>
		<rect x="1173.1" y="1913" class="st15" width="653.8" height="87"/>
		<polygon class="st16" points="1441.6,2000 1500,2000 1558.4,2000 1500,1933 		"/>
	</g>
	<g>
		<polygon class="st5" points="1492.9,106.5 780.9,106.5 732.8,195.1 1492.9,195.1 2253,195.1 2204.8,106.5 		"/>
		<path class="st31" d="M849.2,255.6h1287.3c35.9,0,65-27.1,65-60.5H784.3C784.3,228.5,813.3,255.6,849.2,255.6z"/>
		<rect x="1064.3" y="50.6" class="st5" width="56" height="56"/>
		<rect x="1865.4" y="50.6" class="st5" width="56" height="56"/>
		<rect x="1084.6" class="st5" width="15.5" height="50.6"/>
		<rect x="1885.6" class="st5" width="15.5" height="50.6"/>
	</g>
	<g>
		<g>
			<path class="st32" d="M1221.1,1471.7c-34.7,0-62.9,28.2-62.9,62.9s28.2,62.9,62.9,62.9c34.7,0,62.9-28.2,62.9-62.9
				S1255.8,1471.7,1221.1,1471.7z M1221.1,1570.3c-19.7,0-35.6-16-35.6-35.6s16-35.6,35.6-35.6s35.6,16,35.6,35.6
				S1240.7,1570.3,1221.1,1570.3z"/>
			<path class="st33" d="M1069.8,1661.7c0,7.3,5.9,13.2,13.2,13.2h90.5c7.3,0,13.2-5.9,13.2-13.2v-17.4h-116.8V1661.7z"/>
			<path class="st34" d="M1210.3,1437h-164.1c-6,0-10.8,4.8-10.8,10.8v159.5c0,24.6,20,44.6,44.6,44.6h96.4
				c24.6,0,44.6-20,44.6-44.6v-159.5C1221.1,1441.8,1216.3,1437,1210.3,1437z"/>
			<path class="st32" d="M1210.3,1437h-82.1v214.9h48.2c24.6,0,44.6-20,44.6-44.6v-159.5C1221.1,1441.8,1216.3,1437,1210.3,1437z"/>
			<path class="st35" d="M1128.2,1674.8h44.7c7.6,0,13.7-6.1,13.7-13.7v-16.9h-58.4V1674.8z"/>
		</g>
		<g>
			<rect x="1946.5" y="1372.4" class="st36" width="403.2" height="302.5"/>
			<rect x="2349.7" y="1372.4" class="st37" width="197.4" height="302.5"/>
			<g>
				<path class="st38" d="M2254.9,1473.4h-213.6c-14.2,0-25.6,11.5-25.6,25.6v115.1c0,14.2,11.5,25.6,25.6,25.6h213.6
					c14.1,0,25.6-11.5,25.6-25.6V1499C2280.5,1484.8,2269.1,1473.4,2254.9,1473.4z"/>
				<path class="st39" d="M2203.8,1497h-111.5c-1.7,0-3,1.3-3,3s1.3,3,3,3h111.5c1.7,0,3-1.3,3-3S2205.5,1497,2203.8,1497z"/>
				<path class="st39" d="M2231.3,1528.8h-166.5c-1.7,0-3,1.3-3,3s1.3,3,3,3h166.5c1.7,0,3-1.3,3-3S2233,1528.8,2231.3,1528.8z"/>
				<path class="st39" d="M2231.3,1553.5h-166.5c-1.7,0-3,1.3-3,3s1.3,3,3,3h166.5c1.7,0,3-1.3,3-3S2233,1553.5,2231.3,1553.5z"/>
				<path class="st39" d="M2231.3,1578.2h-166.5c-1.7,0-3,1.3-3,3s1.3,3,3,3h166.5c1.7,0,3-1.3,3-3S2233,1578.2,2231.3,1578.2z"/>
				<path class="st39" d="M2231.3,1602.9h-166.5c-1.7,0-3,1.3-3,3s1.3,3,3,3h166.5c1.7,0,3-1.3,3-3S2233,1602.9,2231.3,1602.9z"/>
			</g>
			<path class="st37" d="M2209.4,1412.2h-122.6c-12.1,0-21.9,8.3-21.9,18.5c0,10.2,9.8,18.5,21.9,18.5h122.6
				c12.1,0,21.9-8.3,21.9-18.5C2231.3,1420.4,2221.5,1412.2,2209.4,1412.2z"/>
			<rect x="1920.6" y="1333.7" class="st40" width="643.4" height="46.6"/>
			<rect x="2349.7" y="1333.7" class="st37" width="214.2" height="46.6"/>
			<rect x="2349.7" y="1380.3" class="st41" width="197.4" height="18.7"/>
			<rect x="1946.5" y="1380.3" class="st42" width="403.2" height="18.7"/>
		</g>
		<g>
			<path class="st43" d="M909.4,1434.6H535.1c-7.5,0-13.5,6-13.5,13.5v213.2c0,7.5,6,13.5,13.5,13.5h374.3c7.5,0,13.5-6,13.5-13.5
				v-213.2C922.9,1440.6,916.9,1434.6,909.4,1434.6z"/>
			<path class="st44" d="M787.9,1400.4h-65.6h-65.6c-3,0-5.8,1.8-7,4.6l-12.9,29.6h85.5h85.5l-12.9-29.6
				C793.7,1402.2,790.9,1400.4,787.9,1400.4z"/>
			<path class="st44" d="M881,1423.1h-27.2c-1.3,0-2.3,1-2.3,2.3v9.2h31.7v-9.2C883.3,1424.2,882.3,1423.1,881,1423.1z"/>
			<rect x="521.6" y="1506.4" class="st44" width="401.3" height="91.2"/>
			<path class="st44" d="M604.8,1421.8h-46.5c-2.2,0-3.9,1.1-3.9,2.5v10.3h54.3v-10.3C608.7,1422.9,606.9,1421.8,604.8,1421.8z"/>
			<circle class="st45" cx="722.3" cy="1554.7" r="106.3"/>
			<circle class="st44" cx="722.3" cy="1554.7" r="75.1"/>
			<circle class="st45" cx="722.3" cy="1554.7" r="40.5"/>
			<rect x="521.6" y="1506.4" class="st46" width="66.7" height="91.2"/>
			<path class="st47" d="M521.6,1661.3c0,7.5,6,13.5,13.5,13.5h53.2v-77.3h-66.7V1661.3z"/>
			<path class="st47" d="M521.6,1448.1v58.3h66.7v-71.8h-53.2C527.7,1434.6,521.6,1440.6,521.6,1448.1z"/>
		</g>
	</g>
	<g>
		<path class="st48" d="M282.1,89.6H159c-10.1,0-18.3,8.2-18.3,18.3v51.8c0,10.1,8.2,18.3,18.3,18.3h123.1
			c10.1,0,18.3-8.2,18.3-18.3v-51.8C300.4,97.8,292.2,89.6,282.1,89.6z"/>
		<path class="st48" d="M483.3,89.6H360.2c-10.1,0-18.3,8.2-18.3,18.3v51.8c0,10.1,8.2,18.3,18.3,18.3h123.1
			c10.1,0,18.3-8.2,18.3-18.3v-51.8C501.6,97.8,493.4,89.6,483.3,89.6z"/>
		<path class="st48" d="M2673.5,223.2h-123.1c-10.1,0-18.3,8.2-18.3,18.3v51.8c0,10.1,8.2,18.3,18.3,18.3h123.1
			c10.1,0,18.3-8.2,18.3-18.3v-51.8C2691.8,231.3,2683.6,223.2,2673.5,223.2z"/>
		<path class="st48" d="M2874.7,223.2h-123.1c-10.1,0-18.3,8.2-18.3,18.3v51.8c0,10.1,8.2,18.3,18.3,18.3h123.1
			c10.1,0,18.3-8.2,18.3-18.3v-51.8C2893,231.3,2884.8,223.2,2874.7,223.2z"/>
		<path class="st48" d="M2575.5,50.6h-123.1c-10.1,0-18.3,8.2-18.3,18.3v51.8c0,10.1,8.2,18.3,18.3,18.3h123.1
			c10.1,0,18.3-8.2,18.3-18.3V68.8C2593.8,58.7,2585.6,50.6,2575.5,50.6z"/>
		<path class="st48" d="M2937.5,438.4h-123.1c-10.1,0-18.3,8.2-18.3,18.3v51.8c0,10.1,8.2,18.3,18.3,18.3h123.1
			c10.1,0,18.3-8.2,18.3-18.3v-51.8C2955.8,446.6,2947.6,438.4,2937.5,438.4z"/>
		<path class="st48" d="M188.9,267.4H65.9c-10.1,0-18.3,8.2-18.3,18.3v51.8c0,10.1,8.2,18.3,18.3,18.3h123.1
			c10.1,0,18.3-8.2,18.3-18.3v-51.8C207.2,275.5,199,267.4,188.9,267.4z"/>
		<path class="st48" d="M496.7,337.4H373.6c-10.1,0-18.3,8.2-18.3,18.3v51.8c0,10.1,8.2,18.3,18.3,18.3h123.1
			c10.1,0,18.3-8.2,18.3-18.3v-51.8C515,345.6,506.8,337.4,496.7,337.4z"/>
	</g>
	<g>
		<g>
			<path class="st5" d="M2760.5,1272.9c-11.3,0-20.5,9.2-20.5,20.5c0,43-35,78-78,78h-41.5c-11.3,0-20.5,9.2-20.5,20.5
				s9.2,20.5,20.5,20.5h41.5c65.6,0,119-53.4,119-119C2781,1282,2771.8,1272.9,2760.5,1272.9z"/>
			<path class="st5" d="M2620.5,1296H2579c-43,0-78-35-78-78c0-11.3-9.2-20.5-20.5-20.5s-20.5,9.2-20.5,20.5
				c0,65.6,53.4,119,119,119h41.5c11.3,0,20.5-9.2,20.5-20.5S2631.8,1296,2620.5,1296z"/>
			<path class="st5" d="M2725.9,1106.9c-11.3,0-20.5,9.2-20.5,20.5c0,29.6-24.1,53.7-53.7,53.7h-31.3c-11.3,0-20.5,9.2-20.5,20.5
				s9.2,20.5,20.5,20.5h31.3c52.2,0,94.7-42.5,94.7-94.7C2746.4,1116.1,2737.2,1106.9,2725.9,1106.9z"/>
			<path class="st5" d="M2620.5,1117.9h-31.3c-29.6,0-53.7-24.1-53.7-53.7c0-11.3-9.2-20.5-20.5-20.5s-20.5,9.2-20.5,20.5
				c0,52.2,42.5,94.7,94.7,94.7h31.3c11.3,0,20.5-9.2,20.5-20.5S2631.8,1117.9,2620.5,1117.9z"/>
			<path class="st5" d="M2792,896.5L2792,896.5c-10,0-18.5,7.3-20.2,17.1c-8.1,46.3-48.7,81.6-97.3,81.6h-54.1
				c-11.6,0-20.9,9.6-20.5,21.2c0.4,11.1,9.9,19.8,21,19.8h53.6c68.9,0,126.3-50.1,137.7-115.8C2814.4,908,2804.7,896.5,2792,896.5z
				"/>
			<path class="st5" d="M2620.5,935.7h-54.1c-54.5,0-98.8-44.3-98.8-98.8c0-11.3-9.2-20.5-20.5-20.5s-20.5,9.2-20.5,20.5
				c0,77.1,62.7,139.8,139.8,139.8h54.1c11.3,0,20.5-9.2,20.5-20.5S2631.8,935.7,2620.5,935.7z"/>
			<path class="st5" d="M2620.5,766.1c-11.3,0-20.5,9.2-20.5,20.5V2000h41V786.6C2641,775.3,2631.8,766.1,2620.5,766.1z"/>
		</g>
		<g>
			<path class="st5" d="M2770.1,1066.2L2770.1,1066.2c-32.6,0-59,26.4-59,59l-21.7,743.9c0,32.6,26.4,59,59,59l0,0
				c32.6,0,59-26.4,59-59l21.7-743.9C2829.1,1092.7,2802.7,1066.2,2770.1,1066.2z"/>
			<path class="st4" d="M2770.1,1066.2L2770.1,1066.2c-32.6,0-80.7,36.6-80.7,98.2v734.2c0,32.6,26.4,59,59,59l0,0
				c32.6,0,59-26.4,59-59l21.7-773.4C2829.1,1092.7,2802.7,1066.2,2770.1,1066.2z"/>
			<path class="st2" d="M2770.1,1066.2L2770.1,1066.2c-32.6,0-59,26.4-59,59v743.9c0,32.6,26.4,59,59,59h0c26.1,0,48.3-17,56-40.5
				c10.2,17.5,29.1,29.3,50.8,29.3c32.4,0,58.7-26.3,58.7-58.7v-23.4C2935.7,1013.9,2770.1,1066.2,2770.1,1066.2z"/>
			<path class="st47" d="M2804.6,1168.2L2804.6,1168.2c-30,0-54.3,24.3-54.3,54.3v685c0,30,24.3,54.3,54.3,54.3h0
				c30,0,54.3-24.3,54.3-54.3v-685C2858.9,1192.6,2834.6,1168.2,2804.6,1168.2z"/>
		</g>
	</g>
	<g>
		<path class="st37" d="M480,1874.9c0,21,17.1,38.1,38.1,38.1h1963.8c21,0,38.1-17.1,38.1-38.1V1813H480V1874.9z"/>
		<polygon class="st37" points="553,2000 640,2000 659.2,1913 572.2,1913 		"/>
		<polygon class="st49" points="852.7,2000 939.7,2000 958.8,1913 871.8,1913 		"/>
		<polygon class="st37" points="2340.8,1913 2360,2000 2447,2000 2427.8,1913 		"/>
		<polygon class="st49" points="2041.2,1913 2060.3,2000 2147.3,2000 2128.2,1913 		"/>
		<path class="st48" d="M2627.9,1674.8H372.1c-38.2,0-69.1,30.9-69.1,69.1l0,0c0,38.2,30.9,69.1,69.1,69.1h2255.8
			c38.2,0,69.1-30.9,69.1-69.1l0,0C2697,1705.8,2666.1,1674.8,2627.9,1674.8z"/>
	</g>
</g>
</svg>

